<?xml version="1.0" encoding="utf-8"?>
<!-- Generator: Adobe Illustrator 18.0.0, SVG Export Plug-In . SVG Version: 6.00 Build 0)  -->
<!DOCTYPE svg PUBLIC "-//W3C//DTD SVG 1.1//EN" "http://www.w3.org/Graphics/SVG/1.1/DTD/svg11.dtd">
<svg version="1.1" id="Capa_1" xmlns="http://www.w3.org/2000/svg" xmlns:xlink="http://www.w3.org/1999/xlink" x="0px" y="0px"
	 viewBox="0 0 170.1 170.1" enable-background="new 0 0 170.1 170.1" xml:space="preserve">
<path fill="#FFFFFF" d="M149.9,20.2C136.9,7.2,119.6,0,101.2,0S65.5,7.2,52.5,20.2c-13,13-20.2,30.3-20.2,48.7
	c0,14,4.2,27.4,11.9,38.7L3.8,148c-5,5-5,13.2,0,18.3c2.4,2.4,5.7,3.8,9.1,3.8s6.7-1.3,9.1-3.8l40.5-40.5
	c11.3,7.7,24.7,11.9,38.7,11.9c18.4,0,35.7-7.2,48.7-20.2c13-13,20.2-30.3,20.2-48.7C170.1,50.5,162.9,33.2,149.9,20.2z M144.3,112
	c-11.5,11.5-26.8,17.9-43.1,17.9c-16.3,0-31.6-6.3-43.1-17.9S40.2,85.2,40.2,68.9c0-16.3,6.3-31.6,17.9-43.1
	C69.6,14.2,84.9,7.9,101.2,7.9c16.3,0,31.6,6.3,43.1,17.9c11.5,11.5,17.9,26.8,17.9,43.1C162.2,85.2,155.9,100.5,144.3,112z
	 M105.2,22c0,2.2-1.8,3.9-3.9,3.9c-23.7,0-42.9,19.3-42.9,42.9c0,2.2-1.8,3.9-3.9,3.9c-2.2,0-3.9-1.8-3.9-3.9
	c0-28,22.8-50.8,50.8-50.8C103.4,18.1,105.2,19.8,105.2,22z"/>
</svg>
