<?xml version="1.0" encoding="iso-8859-1"?>
<!-- Generator: Adobe Illustrator 16.0.0, SVG Export Plug-In . SVG Version: 6.00 Build 0)  -->
<!DOCTYPE svg PUBLIC "-//W3C//DTD SVG 1.1//EN" "http://www.w3.org/Graphics/SVG/1.1/DTD/svg11.dtd">
<svg version="1.1" id="Capa_1" xmlns="http://www.w3.org/2000/svg" xmlns:xlink="http://www.w3.org/1999/xlink" x="0px" y="0px"
	 width="390.717px" height="390.717px" viewBox="0 0 390.717 390.717" style="enable-background:new 0 0 390.717 390.717;"
	 xml:space="preserve">
<g>
	<g>
		<path d="M148.732,189.011c0.445,2.382,1.444,4.595,2.983,6.47c1.544,1.879,3.54,3.687,5.801,4.646
			c2.152,0.915,4.582,0.753,6.831,0.326c2.522-0.479,4.97-1.334,7.328-2.34c1.978-0.843,4.109-1.886,6.344-3.071l-24.324-24.324
			C150.296,175.962,147.543,182.651,148.732,189.011z"/>
		<path d="M238.334,193.454c-1.824-1.202-3.858-1.948-6.051-2.048c-2.353-0.108-4.691,0.394-6.924,1.095
			c-4.861,1.527-9.365,4.013-13.747,6.568l26.881,26.881c4.995-6.267,9.415-14.774,7.114-22.988
			C244.509,199.041,241.705,195.674,238.334,193.454z"/>
		<path d="M384.858,234.605L167.433,17.18c-3.336-3.337-7.746-5.386-12.449-5.786L21.692,0.072C15.82-0.427,10.025,1.69,5.857,5.858
			s-6.284,9.962-5.785,15.834l11.322,133.292c0.399,4.703,2.449,9.113,5.786,12.45l217.426,217.424
			c7.811,7.811,20.473,7.811,28.283,0l121.97-121.969C392.669,255.079,392.669,242.416,384.858,234.605z M82.285,82.286
			c-5.697,5.698-14.937,5.697-20.635-0.001L46.223,66.858c-5.698-5.698-5.698-14.937-0.001-20.635
			c5.699-5.698,14.938-5.698,20.636,0.001L82.285,61.65C87.983,67.349,87.984,76.587,82.285,82.286z M266.814,212.549
			c-1.342,10.577-6.668,20.201-13.492,28.229l7.872,7.872c2.106,2.105,3.224,5.062,3.041,8.035
			c-0.251,4.086-2.962,7.742-6.804,9.161c-3.793,1.4-8.162,0.444-11.021-2.413l-8.604-8.604c-1.516,1.032-3.066,2.009-4.66,2.915
			c-8.85,5.034-19.004,7.755-29.207,6.958c-5.084-0.397-10.105-1.601-14.785-3.638c-1.223-0.533-2.423-1.118-3.597-1.753
			c-1.062-0.574-2.145-1.154-3.085-1.92c-1.577-1.284-2.753-3.027-3.36-4.969c-1.251-3.991,0.055-8.462,3.266-11.148
			c3.159-2.644,7.717-3.173,11.396-1.321c1.133,0.57,2.198,1.254,3.357,1.78c1.15,0.522,2.343,0.96,3.563,1.289
			c2.404,0.647,4.911,0.955,7.398,0.909c5.128-0.098,10.092-1.788,14.532-4.282l-29.248-29.248
			c-8.538,5.024-17.807,9.759-27.76,11.005c-4.838,0.604-9.778,0.284-14.404-1.317c-4.883-1.69-9.204-4.688-12.867-8.298
			c-3.719-3.664-6.677-8.024-8.5-12.928c-1.707-4.593-2.459-9.498-2.256-14.388c0.434-10.456,4.87-20.483,11.098-28.764
			l-0.643-0.644l-7.529-7.529c-2.105-2.105-3.224-5.063-3.041-8.035c0.251-4.086,2.961-7.743,6.804-9.162
			c3.792-1.4,8.162-0.445,11.021,2.414l7.528,7.528l0.599,0.599c1.089-0.845,2.199-1.663,3.33-2.448
			c8.413-5.834,18.322-9.859,28.666-9.935c4.9-0.035,9.818,0.844,14.4,2.584c1.279,0.485,2.529,1.041,3.748,1.66
			c1.139,0.578,2.303,1.179,3.332,1.941c1.641,1.214,2.901,2.909,3.597,4.829c1.426,3.932,0.321,8.447-2.763,11.276
			c-3.031,2.779-7.556,3.519-11.31,1.843c-1.117-0.498-2.127-1.196-3.249-1.687c-1.135-0.497-2.325-0.861-3.536-1.12
			c-2.352-0.504-4.775-0.53-7.152-0.172c-5.151,0.776-9.883,3.231-14.111,6.183l27.988,27.988
			c5.289-3.246,10.676-6.402,16.375-8.879c8.618-3.744,18.209-5.861,27.474-3.343c-1.441-0.396-2.845-0.781,0.05,0.012
			c2.841,0.779,1.486,0.409,0.062,0.019c7.412,2.051,13.947,6.823,18.736,12.778C265.416,192.311,268.085,202.531,266.814,212.549z"
			/>
	</g>
</g>
<g>
</g>
<g>
</g>
<g>
</g>
<g>
</g>
<g>
</g>
<g>
</g>
<g>
</g>
<g>
</g>
<g>
</g>
<g>
</g>
<g>
</g>
<g>
</g>
<g>
</g>
<g>
</g>
<g>
</g>
</svg>
