<?xml version="1.0" encoding="iso-8859-1"?>
<!-- Generator: Adobe Illustrator 18.1.1, SVG Export Plug-In . SVG Version: 6.00 Build 0)  -->
<svg version="1.1" id="Capa_1" xmlns="http://www.w3.org/2000/svg" xmlns:xlink="http://www.w3.org/1999/xlink" x="0px" y="0px"
	 viewBox="0 0 163.361 163.361" style="enable-background:new 0 0 163.361 163.361;" xml:space="preserve">
<g>
	<g>
		<path style="fill:#010002;" d="M0,53.499l42.186-42.192l4.219,4.219L4.219,57.718L0,53.499z M7.465,60.969L49.65,18.778
			l4.219,4.219L11.683,65.188L7.465,60.969z M116.957,15.532l4.219-4.219l42.186,42.186l-4.219,4.225L116.957,15.532z
			 M151.666,65.17L109.48,22.984l4.219-4.219l42.186,42.186L151.666,65.17z"/>
		<path style="fill:#010002;" d="M127.494,89.36l21.093-21.087l-42.186-42.192L85.308,47.174l15.186,15.186
			c-3.92,3.926-10.919,10.931-18.82,18.825c-7.9-7.9-14.899-14.899-18.825-18.825l15.192-15.186L56.948,26.081L14.762,68.273
			L35.849,89.36l15.198-15.192c3.914,3.92,10.919,10.925,18.82,18.825c-12.536,12.53-24.613,24.613-28.54,28.54
			c-4.988-0.991-10.442,0.358-14.147,4.069c-2.93,2.924-4.547,6.82-4.547,10.943c0,4.147,1.617,8.043,4.547,10.961
			c2.918,2.918,6.814,4.547,10.949,4.547c4.129,0,8.025-1.617,10.949-4.547c3.855-3.855,5.227-9.273,4.147-14.249
			c4.04-4.04,16.033-16.033,28.456-28.456c12.423,12.423,24.416,24.41,28.45,28.456c-1.074,4.976,0.292,10.382,4.153,14.249
			c2.924,2.918,6.814,4.547,10.949,4.547c4.135,0,8.031-1.617,10.949-4.547c2.93-2.918,4.541-6.814,4.541-10.961
			c0-4.123-1.617-8.019-4.541-10.943c-3.711-3.711-9.153-5.06-14.153-4.069c-3.926-3.926-16.015-16.021-28.54-28.54
			c7.9-7.9,14.905-14.911,18.825-18.825L127.494,89.36z M44.841,143.288c-3.604,3.604-9.869,3.604-13.473,0
			c-1.802-1.802-2.792-4.195-2.792-6.743c0-2.542,0.991-4.929,2.792-6.725c1.802-1.808,4.189-2.798,6.737-2.798
			c2.542,0,4.929,1.002,6.737,2.798C48.558,133.527,48.558,139.571,44.841,143.288z M131.951,129.821
			c1.802,1.802,2.792,4.195,2.792,6.725c0,2.548-0.99,4.941-2.792,6.743c-3.598,3.604-9.863,3.604-13.467,0
			c-3.717-3.717-3.717-9.762-0.006-13.479c1.802-1.796,4.195-2.787,6.737-2.787C127.763,127.029,130.149,128.031,131.951,129.821z"
			/>
	</g>
</g>
<g>
</g>
<g>
</g>
<g>
</g>
<g>
</g>
<g>
</g>
<g>
</g>
<g>
</g>
<g>
</g>
<g>
</g>
<g>
</g>
<g>
</g>
<g>
</g>
<g>
</g>
<g>
</g>
<g>
</g>
</svg>
